<svg xmlns="http://www.w3.org/2000/svg" width="160" height="27" viewBox="0 0 160 27">
  <path fill="#EC5946" fill-rule="evenodd" d="M137.146904,50 C143.454245,50 145.795893,53.6507042 145.795893,58.2901408 C145.795893,65.8957746 139.186403,77 128.913368,77 C122.266111,77 120,73.0830986 120,68.5197183 C120,61.4464789 126.760563,50 137.146904,50 Z M136.769219,64.1464789 C139.52632,58.0619718 141.490282,58.4422535 141.490282,55.2098592 C141.490282,53.2704225 140.092848,51.8253521 137.411283,51.8253521 C131.708238,51.8253521 131.594933,57.3394366 128.913368,63.043662 C126.118499,69.128169 124.154536,68.8619718 124.154536,71.8661972 C124.154536,73.9957746 125.627508,75.1366197 128.271304,75.1366197 C134.163191,75.1366197 134.049886,69.8507042 136.769219,64.1464789 Z M160.475254,50.3802817 L166.820364,50.3802817 C174.222992,50.3802817 176.413565,55.6661972 176.413565,59.8873239 C176.413565,68.1014085 168.104493,76.6197183 158.813439,76.6197183 L151.1842,76.6197183 C150.957589,75.1746479 150.768747,72.9690141 150.768747,70.9535211 C150.768747,60.8380282 156.736171,57.1873239 160.475254,50.3802817 Z M154.545598,74.7183099 L155.905264,74.7183099 C161.155087,74.6422535 164.327642,73.8816901 166.858132,66.2 C169.010937,59.6971831 170.937131,59.5830986 170.937131,56.6549296 C170.937131,53.7647887 169.010937,52.2816901 164.592021,52.2816901 L162.741364,52.2816901 C162.174837,55.2859155 161.268392,57.9098592 159.30443,62.8535211 L154.545598,74.7183099 Z M191.017389,50.3802817 L197.362499,50.3802817 C204.765127,50.3802817 206.955701,55.6661972 206.955701,59.8873239 C206.955701,68.1014085 198.646628,76.6197183 189.355575,76.6197183 L181.726336,76.6197183 C181.499725,75.1746479 181.310882,72.9690141 181.310882,70.9535211 C181.310882,60.8380282 187.278307,57.1873239 191.017389,50.3802817 Z M185.087733,74.7183099 L186.447399,74.7183099 C191.697222,74.6422535 194.869777,73.8816901 197.400268,66.2 C199.553073,59.6971831 201.479267,59.5830986 201.479267,56.6549296 C201.479267,53.7647887 199.553073,52.2816901 195.134157,52.2816901 L193.2835,52.2816901 C192.716972,55.2859155 191.810528,57.9098592 189.846565,62.8535211 L185.087733,74.7183099 Z M214.685656,76.6197183 L213.288221,76.6197183 C212.532851,74.7943662 211.853018,71.8661972 211.853018,69.9647887 C211.853018,60.2676056 219.557794,57.0352113 222.050515,50.3802817 L223.410182,50.3802817 C223.410182,52.2816901 222.201589,56.8450704 220.350932,62.2070423 L234.85404,50.3802817 L235.760485,50.3802817 C236.251475,50.9507042 236.62916,51.5591549 236.62916,52.3197183 C236.62916,55.5521127 232.210245,56.8450704 224.845385,60.6478873 C225.298607,60.6098592 225.751829,60.571831 226.205052,60.571831 C231.077189,60.571831 232.512393,63.8422535 232.512393,66.0859155 C232.512393,71.6380282 226.847116,72.8929577 226.847116,74.6042254 C226.847116,75.4028169 227.75356,75.6690141 228.433394,75.7450704 L228.055709,77 C224.581006,76.7338028 223.372413,75.0605634 223.372413,72.7028169 C223.372413,68.9380282 227.187033,66.6943662 227.187033,64.2985915 C227.187033,63.271831 226.658274,62.0549296 224.694311,62.0549296 C222.314895,62.0549296 219.595562,64.3746479 218.235896,67.7591549 L214.685656,76.6197183 Z M247.569439,64.1464789 L241.979699,76.6197183 L240.69557,76.6197183 C239.902431,73.9577465 239.524746,71.6760563 239.524746,69.6605634 C239.524746,60.0774648 247.418365,56.9971831 249.911087,50.3802817 L251.270753,50.3802817 C251.270753,52.471831 250.364309,57.871831 247.569439,64.1464789 Z M264.061689,50.3802817 L270.406798,50.3802817 C277.809426,50.3802817 280,55.6661972 280,59.8873239 C280,68.1014085 271.690928,76.6197183 262.399874,76.6197183 L254.770635,76.6197183 C254.544024,75.1746479 254.355181,72.9690141 254.355181,70.9535211 C254.355181,60.8380282 260.322606,57.1873239 264.061689,50.3802817 Z M258.132032,74.7183099 L259.491699,74.7183099 C264.741522,74.6422535 267.914077,73.8816901 270.444567,66.2 C272.597372,59.6971831 274.523566,59.5830986 274.523566,56.6549296 C274.523566,53.7647887 272.597372,52.2816901 268.178456,52.2816901 L266.327799,52.2816901 C265.761272,55.2859155 264.854827,57.9098592 262.890865,62.8535211 L258.132032,74.7183099 Z" transform="translate(-120 -50)"/>
</svg>
